<svg xmlns="http://www.w3.org/2000/svg" viewBox="0 0 871.94 218.94" fill="#1F2C72">
        <path d="M246.89 138.18v-14.25h32.85v-20.12h-32.85V91.08h38.46V69.43h-63.29v90.4h64.43v-21.65zM320.36 138.18V69.43h-24.83v90.4h65.83v-21.65zM348.88 69.43v21.65H375v68.75h24.84V91.08h26V69.43zM463.15 142a9.81 9.81 0 00-3.41-3.43 23.7 23.7 0 00-5.6-2.47c-2.23-.72-4.81-1.42-7.75-2.13q-3.09-.7-5.24-1.35a16.76 16.76 0 01-3.58-1.5 5.22 5.22 0 01-2-2 6.22 6.22 0 01-.63-3 7.88 7.88 0 01.89-3.83 7.47 7.47 0 012.43-2.69 10.07 10.07 0 013.56-1.54 18.67 18.67 0 014.41-.5 22.31 22.31 0 017.63 1.33 16.13 16.13 0 016.22 4l2.9-3.53a19 19 0 00-7-4.54 25.93 25.93 0 00-9.61-1.72 24.18 24.18 0 00-6.65.88 16.92 16.92 0 00-5.47 2.61 12.26 12.26 0 00-3.71 4.36 13.08 13.08 0 00-1.37 6.09 10.05 10.05 0 00.93 4.54 7.85 7.85 0 002.82 3 21.39 21.39 0 004.8 2.2c1.95.65 4.24 1.3 6.89 1.94 2.29.53 4.31 1 6 1.55A21 21 0 01455 142a7.69 7.69 0 012.6 2.26 5.55 5.55 0 01.87 3.21 7.26 7.26 0 01-3.3 6.39c-2.2 1.5-5.15 2.26-8.86 2.26a23.38 23.38 0 01-8.6-1.59 29.85 29.85 0 01-7.89-4.77l-2.73 4.06a25.28 25.28 0 008.81 5.18 32.08 32.08 0 0010.49 1.76c5.47 0 9.81-1.24 13.05-3.71a11.94 11.94 0 004.84-10 10.08 10.08 0 00-1.13-5.05zM513.14 127.65a24.18 24.18 0 00-4.67-7.5 22.81 22.81 0 00-25.58-5.15 22.82 22.82 0 00-7.27 5.12 23.69 23.69 0 00-4.76 7.49 24.23 24.23 0 00-1.72 9.13 24.75 24.75 0 001.72 9.26 24.42 24.42 0 004.8 7.63 22.66 22.66 0 007.28 5.2 22 22 0 009.21 1.9 24.35 24.35 0 006.44-.84 22.12 22.12 0 005.65-2.38 21 21 0 004.49-3.62 15.35 15.35 0 003-4.63l-5.21-1.41a10.94 10.94 0 01-2.28 3.39 15.33 15.33 0 01-3.36 2.61 17 17 0 01-4.05 1.67 16 16 0 01-4.41.63 15.75 15.75 0 01-6.31-1.28 16.79 16.79 0 01-5.24-3.58 18.73 18.73 0 01-3.75-5.42 19 19 0 01-1.72-6.87h39.33a4 4 0 00.09-1v-1.41a24.14 24.14 0 00-1.68-8.94zm-37.83 6.79a20 20 0 011.63-6.7 16.68 16.68 0 013.62-5.29 16.17 16.17 0 015.24-3.45 16.63 16.63 0 016.35-1.24 16.32 16.32 0 0111.51 4.68 18.29 18.29 0 015.42 12zM557.4 152.08v-20.72q0-8.55-4.93-13.42t-13.59-4.84q-8.37 0-17.27 6l2.11 4a35 35 0 017.49-4 20.11 20.11 0 017.24-1.42q6.07 0 9.52 3.58t3.44 9.65V135a30.53 30.53 0 00-6.44-1.76 41.59 41.59 0 00-7.14-.62 27.87 27.87 0 00-7.76 1 19.4 19.4 0 00-6.09 2.87 13.48 13.48 0 00-4 4.4 11.35 11.35 0 00-1.41 5.56 13.66 13.66 0 001.15 5.6 13.87 13.87 0 003.22 4.54 15.33 15.33 0 004.85 3 16.14 16.14 0 006 1.11 24.39 24.39 0 0010.36-2.21 20.69 20.69 0 008-6.35l.18 3.61a4.36 4.36 0 001.37 3.19 5.2 5.2 0 003.57 1.14 14.11 14.11 0 002.29-.27v-5.28c-1.42.02-2.16-.81-2.16-2.45zm-6-5.82a4.42 4.42 0 01-.4 1.74 5.64 5.64 0 01-1.2 1.72 13.87 13.87 0 01-6 4.67 20.65 20.65 0 01-8.6 1.78 11.93 11.93 0 01-4.32-.8 10.94 10.94 0 01-3.49-2.16 10.13 10.13 0 01-2.28-3.23 9.38 9.38 0 01-.85-4 8 8 0 014-7q4-2.66 10.32-2.65a35.18 35.18 0 016.58.62 37.11 37.11 0 016.21 1.76zM590.39 113.63a16 16 0 00-9.27 3 20.89 20.89 0 00-6.87 8.28v-11h-5.64v45.93h6v-28.57a16.87 16.87 0 016.35-8.73 18.87 18.87 0 0110.58-3.36v-5.46a5.9 5.9 0 00-1.15-.09zM628.57 147.58a8.22 8.22 0 01-1.85 3 14.94 14.94 0 01-3.18 2.51 16.51 16.51 0 01-4 1.72 15.88 15.88 0 01-4.36.61 14.88 14.88 0 01-6.49-1.45 17.12 17.12 0 01-5.33-4 18.87 18.87 0 01-3.62-5.95 21.26 21.26 0 010-14.64 17.65 17.65 0 013.52-5.78 17.3 17.3 0 015.3-3.83 16 16 0 0114.28.57 14.06 14.06 0 015.43 5.52L634 124a19 19 0 00-7.32-8 21.46 21.46 0 00-11.38-3 23.15 23.15 0 00-9.3 2 22.22 22.22 0 00-7.28 5.07 23 23 0 00-4.71 7.54 25.08 25.08 0 00-1.67 9.17A24.74 24.74 0 00594 146a24.27 24.27 0 004.81 7.63 22.31 22.31 0 0016.58 7.1 23.47 23.47 0 006.3-.84 21.21 21.21 0 005.56-2.38 19.55 19.55 0 004.36-3.62 14.94 14.94 0 002.83-4.54zM680 124.87a17.72 17.72 0 00-2.56-6.26 12.36 12.36 0 00-4.5-4.06 14.12 14.12 0 00-6.7-1.45 19.63 19.63 0 00-10.5 3 20.9 20.9 0 00-7.58 8.2V95.46h-6v64.37h6v-28.12a17.85 17.85 0 012.43-5.21 18.66 18.66 0 013.83-4.14 18.26 18.26 0 014.72-2.77 13.38 13.38 0 015.07-1 9 9 0 017.9 3.88q2.67 3.87 2.68 11.73v25.65h6v-26.91a38.75 38.75 0 00-.79-8.07zM690.9 151.19v8.64h5.21v-8.64zM739.76 147.58a8.22 8.22 0 01-1.85 3 14.45 14.45 0 01-3.18 2.51 16.61 16.61 0 01-4 1.72 16 16 0 01-4.37.61 14.88 14.88 0 01-6.49-1.45 17.08 17.08 0 01-5.32-4 18.71 18.71 0 01-3.63-5.95 20.23 20.23 0 01-1.32-7.32 20.47 20.47 0 011.28-7.32 17.65 17.65 0 013.52-5.78 17.3 17.3 0 015.3-3.83 16 16 0 0114.29.57 14 14 0 015.42 5.52l5.82-1.85a19 19 0 00-7.32-8 21.43 21.43 0 00-11.37-3 23.17 23.17 0 00-9.36 1.85 22.07 22.07 0 00-7.27 5.07 23 23 0 00-4.72 7.54 25.29 25.29 0 00-1.67 9.17 24.75 24.75 0 001.72 9.26 24.07 24.07 0 004.8 7.63 22.71 22.71 0 007.32 5.2 22.33 22.33 0 009.26 1.9 23.47 23.47 0 006.3-.84 21.21 21.21 0 005.56-2.38 19.61 19.61 0 004.37-3.62 15.11 15.11 0 002.82-4.54zM793.6 127.82a24.4 24.4 0 00-4.76-7.58 23.35 23.35 0 00-7.23-5.21 21.55 21.55 0 00-9.14-1.93 21.22 21.22 0 00-9.08 1.93 23.41 23.41 0 00-7.19 5.21 24.19 24.19 0 00-4.75 7.58 24.56 24.56 0 00-1.72 9.18 25 25 0 001.67 9.08 23.37 23.37 0 004.72 7.58 22.32 22.32 0 007.18 5.16 21.72 21.72 0 009.17 1.9 22 22 0 009.22-1.9 22.47 22.47 0 007.24-5.16 23.34 23.34 0 004.71-7.58 24.84 24.84 0 001.67-9.08 24.55 24.55 0 00-1.71-9.18zm-5.69 16.31a18.94 18.94 0 01-3.62 5.87 17.12 17.12 0 01-5.33 4 14.88 14.88 0 01-6.49 1.45A15.19 15.19 0 01766 154a16.09 16.09 0 01-5.3-3.91 19.69 19.69 0 01-3.57-5.82 19.27 19.27 0 01-1.32-7.19 19.94 19.94 0 011.32-7.28 19.23 19.23 0 013.61-6 17.13 17.13 0 015.3-4 14.43 14.43 0 016.43-1.46 14.75 14.75 0 016.49 1.46 16.82 16.82 0 015.33 4 18.79 18.79 0 013.62 5.91 20.3 20.3 0 010 14.4zM871.19 124.78a18.7 18.7 0 00-2.38-6.26 11.1 11.1 0 00-4.32-4 14 14 0 00-6.57-1.41q-11.28 0-17.72 11.81a14.25 14.25 0 00-4.28-8.55 13.09 13.09 0 00-9.31-3.26 18.39 18.39 0 00-10.14 3 21.75 21.75 0 00-7.4 8.25V113.9h-5.47v45.93h6v-28.12a20.11 20.11 0 015.82-9.53 13.51 13.51 0 019.26-3.61c3.4 0 5.94 1.23 7.58 3.7s2.47 6.44 2.47 11.91v25.65h6v-28a20.18 20.18 0 012.28-5.33 19.4 19.4 0 013.49-4.19 15.58 15.58 0 014.32-2.73 12.81 12.81 0 015-1 8.54 8.54 0 017.58 3.79q2.57 3.8 2.56 11.82v25.65h6v-26.9a40.84 40.84 0 00-.77-8.16zM165.18 111.29a38.77 38.77 0 00-.82 9.6 36.12 36.12 0 003.18 14 26.79 26.79 0 002.08 3.74 4.17 4.17 0 01.53 1c.16.5-.08.8-.61.77a4.53 4.53 0 01-.88-.22 94.7 94.7 0 00-11.31-3.12c-2.8-.6-5.62-1.1-8.44-1.48-3-.39-5.93-.69-8.92-.86-.54 0-1.1-.08-1.66-.08-.94 0-1.16.19-1.16 1.16s.19 14.63.22 16.78v.38c.09.53.32.76.86.77s26.75-.16 27.75-.17a4.68 4.68 0 01.84.07.85.85 0 01.7.95 2.13 2.13 0 01-.19.78c-1 2.91-5 14.47-7 20.42a.63.63 0 01-.34.36c-9.44 4.34-13.44 1.2-23.51 6.41-10.62 5.48-6.75 9.27-17.36 14.75s-14.5 1.7-25.14 7.2c-10.35 5.36-6.92 9.1-16.59 14.36a.63.63 0 01-.9-.37c-.49-1.74-1.26-4.43-1.79-6.58a66.63 66.63 0 00-5.77-15 78.87 78.87 0 00-12.39-17.16 103 103 0 00-21.39-17.2A131.39 131.39 0 007.93 150c-2.15-.7-4.3-1.37-6.45-2.05a5.58 5.58 0 01-1.18-.5c-.16-.1-.36-.18-.28-.47a1.1 1.1 0 01.78-.2c1.05-.06 78.77 7.08 79.63 7.16a2 2 0 00.43 0 .7.7 0 00.63-.57 3.91 3.91 0 00.05-.84c.07-3.41.11-6.8.15-10.2 0-2.19.08-4.36.11-6.54v-.65a.7.7 0 00-.68-.7h-.53c-2.2.05-4.38.15-6.56.31-1.81.12-3.63.28-5.43.47-2.51.27-5 .63-7.49 1.08-3.23.56-6.45 1.24-9.62 2.11-1.1.31-2.17.62-3.23 1-.2.05-.38.11-.58.15a1.67 1.67 0 01-1.59-.66 16.33 16.33 0 01-1-1.78A44.62 44.62 0 0141 125.73a55.13 55.13 0 01-1.22-9 56.56 56.56 0 01.06-7.13 49.07 49.07 0 013.72-16 36 36 0 012-4.07L46 89a2 2 0 012-1.09q4.17.15 8.32.26c1.33.06 2.65.09 4 .12 2 .07 4 .11 6 .17l11.1.33c1.33 0 2.65.08 4 .12 1.09 0 1.25-.22 1.27-1.17s0-1.8.07-2.68v-4c0-1-.2-1.17-1.15-1.16-2.12 0-4.22.12-6.32.28-2.26.19-4.5.44-6.72.78A73 73 0 0058.8 83c-.25.08-.52.13-.78.2a1.23 1.23 0 01-1.2-.41 3.06 3.06 0 01-.5-.68 29.7 29.7 0 01-3-7.44 35.79 35.79 0 01-1.08-10.8A31.86 31.86 0 0155.37 51a20.61 20.61 0 011.13-2 1.92 1.92 0 011.79-1c2.37.08 4.72.13 7.08.2l4.36.13 6 .16 6.12.18a4.58 4.58 0 00.64 0 .68.68 0 00.68-.69 10.52 10.52 0 00.07-1.12c0-1.58 0-3.14.05-4.73a.74.74 0 000-.21c0-.86-.22-1.08-1.08-1.08a61.16 61.16 0 00-6.9.44 57.05 57.05 0 00-7.9 1.4c-.58.14-1.14.29-1.71.45a1.82 1.82 0 01-2-.83 19.66 19.66 0 01-1.76-4.12 26.41 26.41 0 01-1.1-6.49 25.3 25.3 0 011.54-10.2 18.86 18.86 0 011.36-2.83 2.07 2.07 0 011.82-1l7 .2 3.81.1c2 .07 4.08.11 6.11.17 1 0 1.2-.2 1.22-1.18 0-3.1.08-6.2.14-9.28 0-1.37.05-2.71.08-4.08A2.8 2.8 0 0184 2.8a1.15 1.15 0 011.08-.8 3.29 3.29 0 011.11.17 24.73 24.73 0 003.38.79 26.45 26.45 0 004.79.18 68.75 68.75 0 0010-1.61 71.34 71.34 0 017.27-1.31 26.82 26.82 0 017.16 0 5.79 5.79 0 011.6.47c.2.11.43.19.44.51a1 1 0 01-.74.33l-2.35.29a30.39 30.39 0 00-6.13 1.53c-2.63.91-5.17 2.06-7.72 3.18S98.68 8.85 96 9.75a30.56 30.56 0 01-5.67 1.34c-.61.07-1.22.09-1.81.14h-.49c-.52.07-.73.27-.77.79a4.78 4.78 0 000 .53v4.43a1.33 1.33 0 001.3 1.3l8.35.23 7.31.23a4.33 4.33 0 011 .11.72.72 0 01.56 1.09 3.63 3.63 0 01-.36.64 18.38 18.38 0 00-2.67 7.13 23.09 23.09 0 00-.31 5.18 21 21 0 002.73 9.56 5.14 5.14 0 01.45.91c.15.53-.07.84-.65.82a4.66 4.66 0 01-1-.25 31.05 31.05 0 00-3.24-1 78.81 78.81 0 00-10.57-1.78c-.51-.05-1-.11-1.51-.11a.93.93 0 00-.91.94v4c0 .61 0 1.25.05 1.87s.27 1 1 1S90.3 49 91 49l9.93.27c2.31.07 4.61.13 6.91.21 1.74 0 3.47.11 5.21.16a3.08 3.08 0 01.74.11.7.7 0 01.46 1.05 3.76 3.76 0 01-.36.61 25.43 25.43 0 00-4.13 10.76 31.44 31.44 0 00-.3 7.69 29.29 29.29 0 003.13 11.36c.34.64.73 1.26 1.11 1.89a4.75 4.75 0 01.36.67c.23.58-.06.95-.7.86a5.71 5.71 0 01-.88-.23q-2.81-.94-5.7-1.68c-3-.77-6.1-1.37-9.2-1.84-2.4-.35-4.82-.6-7.24-.81h-1.16a.88.88 0 00-.9.83v1c0 2 .07 4 .1 6.06a1.28 1.28 0 001.24 1.26l3.21.1c3.32.08 6.61.17 9.93.27l7 .2 11.1.34 5.75.17a3.16 3.16 0 01.9.16.67.67 0 01.43.94 2 2 0 01-.33.6 36.06 36.06 0 00-5.86 13.75 47.6 47.6 0 00-1 7.34 48.29 48.29 0 000 6.91 44.7 44.7 0 004.27 16.39 32.65 32.65 0 002.12 3.67 4.74 4.74 0 01.51.94c.19.56-.08.87-.67.8a5.79 5.79 0 01-1.08-.31 107.61 107.61 0 00-14.85-4.16c-3.3-.69-6.61-1.26-9.94-1.68-2.69-.35-5.39-.65-8.1-.8l-2.3-.18h-.65c-.75 0-1 .24-1 1v4.19q.06 3.18.11 6.39c0 2.12.07 4.24.1 6.37a6.84 6.84 0 00.08.91.69.69 0 00.67.65c.19 0 40.45-.25 40.68-.3a.71.71 0 00.7-.72 4.7 4.7 0 000-.75c0-3.66.2-14.57.21-16.37 0-1.26-.13-1.4-1.42-1.39h-1.61a1.69 1.69 0 01-1.8-1.16c-.48-1.18-.92-2.4-1.3-3.63A48.26 48.26 0 01124 122a49.46 49.46 0 01-.27-9.1 44 44 0 012.89-13.26c.17-.46.38-.92.58-1.38a1.74 1.74 0 012.1-1 5.5 5.5 0 001.15 0 6.73 6.73 0 001.19 0 .67.67 0 00.57-.56 4.15 4.15 0 00.06-.86c0-2 0-3.94.07-5.91v-1.77a2.8 2.8 0 000-.41c-.06-.71-.26-.94-1-.94-.94 0-1.91 0-2.85.06-1.58.1-3.17.19-4.75.38-.51.06-1 .14-1.55.18-.23 0-.46 0-.7.07a1.78 1.78 0 01-1.43-.61c-.76-.89-1.49-1.81-2.27-2.71A23.35 23.35 0 01113 73.71a31.36 31.36 0 01-.62-8.26 31 31 0 01.65-4.78c0-.15.08-.3.13-.45a1.52 1.52 0 011.45-1.13h3.46c3.2.07 6.4.16 9.6.25q1.9 0 3.81.12c1.06 0 1.27-.19 1.28-1.23l.09-6.12v-.53c-.06-.6-.3-.83-.9-.83h-1.51c-1.34.09-2.7.19-4.05.39a45.25 45.25 0 00-5.77 1.13h-.16a2.16 2.16 0 01-2.33-1 12.29 12.29 0 01-.7-1.57 20.14 20.14 0 01-1.17-4.7 19.49 19.49 0 011.48-10c.18-.4.38-.77.59-1.15a1.89 1.89 0 011.71-1l3.65.07 5.63.18 2.51.08a1.24 1.24 0 001.25-1.18c0-3.93.1-7.87.14-11.8 0-1.13.05-2.27.07-3.4v-.31c0-1.05.6-1.48 1.64-1.22.83.21 1.65.48 2.49.63a22.87 22.87 0 004.75.32 52.9 52.9 0 008.58-1.29c2.28-.48 4.58-1 6.89-1.31a27.32 27.32 0 016.7-.14 7 7 0 011.87.46c.23.11.47.21.53.49s-.3.28-.49.33A11.59 11.59 0 01165 15a30.34 30.34 0 00-7.92 2c-2.6 1-5.11 2.17-7.65 3.26a50.55 50.55 0 01-7.5 2.72 22 22 0 01-5 .72h-.42a.69.69 0 00-.63.63 2.89 2.89 0 00-.05.65c0 2.38.07 4.77.1 7.13a2.26 2.26 0 000 .27c.07.64.32.9.95 1s1.28 0 1.93.06c1.69.06 3.39.1 5.1.14 1.9.07 3.81.12 5.73.2a1.67 1.67 0 01.73.14.68.68 0 01.4.8 2 2 0 01-.28.64 15.15 15.15 0 00-2.16 6.89 17.16 17.16 0 001.31 8.32c.19.44.43.85.62 1.26a5.19 5.19 0 01.3.68c.15.52-.11.85-.66.82a4.48 4.48 0 01-.9-.21 47.52 47.52 0 00-4.77-1.2 51.42 51.42 0 00-5.77-.84 13 13 0 00-1.39-.1c-.62 0-.82.21-.9.83a2.55 2.55 0 000 .48c0 2.06 0 4.11.09 6.17a5.65 5.65 0 000 .58.78.78 0 00.71.7 2.28 2.28 0 00.36 0l7.85.23 11.79.35c.65 0 1.29 0 1.93.07a2.09 2.09 0 01.74.12.69.69 0 01.45 1 3.21 3.21 0 01-.35.66 21.2 21.2 0 00-3.21 7.6 28.92 28.92 0 00-.49 8.7 25.67 25.67 0 001.72 7.39 22.15 22.15 0 001.67 3.34 5.4 5.4 0 01.44.82c.23.59 0 .93-.69.88a5 5 0 01-1-.28c-2.33-.74-4.66-1.37-7-1.91s-4.91-1-7.39-1.26c-2-.24-4-.46-6-.53-1 0-1.2.13-1.2 1.14 0 2.63.06 5.26.08 7.89a5.29 5.29 0 00.06.8.72.72 0 00.69.7c.33 0 .65.06 1 .07l5.4.14 11.69.35 6.56.2 7 .2a3.43 3.43 0 01.79.12.71.71 0 01.5 1 3.25 3.25 0 01-.35.6 29.13 29.13 0 00-4.83 11.16z"/>
</svg>
