<svg xmlns="http://www.w3.org/2000/svg" viewBox="0 0 54.46 68.62" fill="#ddd" width="54" height="68">
        <path d="M52.78 35.57a12.58 12.58 0 00-.26 3.06 11.54 11.54 0 001 4.48 8.71 8.71 0 00.66 1.2 1 1 0 01.17.32c.05.16 0 .25-.19.24a1.28 1.28 0 01-.28-.07 30.32 30.32 0 00-3.62-1c-.89-.19-1.79-.34-2.7-.47s-1.89-.22-2.84-.28h-.54c-.3 0-.37.06-.37.37s.06 4.68.07 5.37a.49.49 0 000 .12.23.23 0 00.27.24c.18 0 8.55-.05 8.87-.05a1.23 1.23 0 01.27 0 .26.26 0 01.22.3.71.71 0 01-.06.25c-.39 1.12-1.13 3.3-1.55 4.5a.21.21 0 01-.14.15l-.38.15c-.32.13-1.27.4-1.52 0-.13-.19.19-.49.48-.58a2.07 2.07 0 00-1.3.16 3.41 3.41 0 00-.81.55 6.29 6.29 0 00-.82 1l-.73 1.07a2.65 2.65 0 01-.89.75l-.54.28-.76.31c-.52.19-2 .66-2.41.08-.23-.32.28-.83.74-1v-.06a3.36 3.36 0 00-2.14.25 5.05 5.05 0 00-1.32.9 9.76 9.76 0 00-1.33 1.67l-1.2 1.74a4.32 4.32 0 01-1.38 1.18h-.09c-.32.15-.77.32-1 .43-.59.22-2.28.75-2.74.1-.25-.36.35-.94.88-1.1v-.06a3.77 3.77 0 00-2.4.27 5.74 5.74 0 00-1.47 1A11.28 11.28 0 0027 65.38c-.44.65-.88 1.3-1.33 1.94a4.68 4.68 0 01-1.47 1.29.11.11 0 01-.17-.08c-.07-.27-.12-.54-.19-.81A20.9 20.9 0 0022 62.93a25.51 25.51 0 00-4-5.48A33.23 33.23 0 0011.24 52a41.65 41.65 0 00-8.71-4c-.68-.23-1.37-.44-2-.65l-.43-.22C0 47.09 0 47.06 0 47s.17-.06.26-.07c.33 0 25.17 2.26 25.44 2.29h.14A.21.21 0 0026 49a1.18 1.18 0 000-.27c0-1.08 0-2.17.05-3.25v-2.1a1.41 1.41 0 000-.2.21.21 0 00-.21-.22h-.18c-.7 0-1.39 0-2.09.1s-1.16.09-1.74.15c-.8.09-1.59.2-2.39.35a29.48 29.48 0 00-3.07.67l-1 .31-.18.05a.42.42 0 01-.47-.16 5.54 5.54 0 01-.36-.62 14.32 14.32 0 01-1.3-3.63 18 18 0 01-.33-5.18 15.55 15.55 0 011.19-5.11 10.51 10.51 0 01.65-1.3l.11-.19a.66.66 0 01.64-.35l2.66.08h1.27l1.91.06 3.55.1h1.27c.35 0 .4-.07.41-.38s0-.57 0-.85v-1.29c0-.43-.06-.38-.37-.37-.68 0-1.35 0-2 .09s-1.44.14-2.15.25a23.65 23.65 0 00-3.09.67l-.25.07a.39.39 0 01-.38-.13 1.53 1.53 0 01-.16-.22 9.43 9.43 0 01-1-2.38 11.8 11.8 0 01-.34-3.45 10.25 10.25 0 011-4.1 5.32 5.32 0 01.37-.66.6.6 0 01.57-.31l2.26.07h1.39l1.92.05 1.95.06h.21a.22.22 0 00.22-.22v-.35-1.51.07c0-.28-.07-.35-.35-.35a20.14 20.14 0 00-2.2.14 19.41 19.41 0 00-2.53.45l-.54.14a.57.57 0 01-.65-.26 6.42 6.42 0 01-.57-1.32 8.46 8.46 0 01-.35-2.07 8 8 0 01.5-3.26 5 5 0 01.51-.87.65.65 0 01.58-.32l2.25.06h3.17c.32 0 .38-.07.39-.38 0-1 0-2 .05-3v-1.3a.74.74 0 010-.26.38.38 0 01.4-.17 1 1 0 01.3.05 10 10 0 001.05.25 8.68 8.68 0 001.61.07 23 23 0 003.19-.52 23 23 0 012.32-.41A8.36 8.36 0 0138 .09a1.75 1.75 0 01.51.14c.07 0 .14.07.14.16a.31.31 0 01-.23.11l-.75.09a10 10 0 00-2 .49c-.85.29-1.66.66-2.47 1s-1.66.73-2.53 1a10.12 10.12 0 01-1.81.42h-.74c-.16 0-.23.09-.24.26a.91.91 0 000 .17v1.41c0 .47.08.41.41.42l2.71.16 2.31.08h.3a.23.23 0 01.18.35 1.32 1.32 0 01-.12.2 6.06 6.06 0 00-.85 2.28 7.1 7.1 0 00-.1 1.66 6.8 6.8 0 00.87 3.05 1.59 1.59 0 01.15.29c0 .17 0 .27-.21.26a1.4 1.4 0 01-.28-.06 20.08 20.08 0 00-2.54-.64c-.63-.12-1.27-.2-1.91-.26a4.22 4.22 0 00-.49 0c-.21 0-.29.07-.29.29v1.88c0 .2.09.32.34.34h.7l3.17.09 2.21.06 1.66.06a.88.88 0 01.24 0 .23.23 0 01.15.34 1.18 1.18 0 01-.11.19 8.11 8.11 0 00-1.33 3.44 10.14 10.14 0 00-.05 2.5A9.24 9.24 0 0036 26c.11.2.23.4.35.6a2.25 2.25 0 01.12.21c.07.19 0 .31-.23.28L36 27c-.6-.21-1.21-.38-1.83-.54a29.41 29.41 0 00-2.94-.59c-.77-.11-1.54-.19-2.31-.26h-.42c-.2 0-.27.07-.28.27s0 .2 0 .3v1.94c0 .32.07.39.39.4h1l3.17.09 2.25.06 3.54.11 1.84.06a.69.69 0 01.28.05.21.21 0 01.15.3 1.18 1.18 0 01-.11.19 11.42 11.42 0 00-1.87 4.39 15.61 15.61 0 00-.32 2.35 16.3 16.3 0 000 2.21A14.51 14.51 0 0040 43.56a11.47 11.47 0 00.68 1.17 1.43 1.43 0 01.16.3c.06.18 0 .28-.21.25a1.33 1.33 0 01-.34-.1 34.13 34.13 0 00-4.75-1.32q-1.58-.33-3.18-.54c-.86-.11-1.72-.21-2.59-.26L29 43h-.21c-.24 0-.32.08-.32.32v5.64a.21.21 0 00.22.2c.06 0 12.92-.08 13-.09a.22.22 0 00.22-.23 1.93 1.93 0 000-.24c0-1.17.06-4.66.06-5.23 0-.4 0-.45-.45-.45h-.51a.54.54 0 01-.58-.37c-.15-.37-.29-.76-.41-1.16a14.13 14.13 0 01-.38-2.39 14.91 14.91 0 01-.09-2.91 14 14 0 01.92-4.24c.06-.14.12-.29.19-.44a.55.55 0 01.67-.31 1.53 1.53 0 00.37 0 1.61 1.61 0 00.38 0 .21.21 0 00.18-.18 1.32 1.32 0 000-.28v-1.88V28c0-.23-.09-.3-.31-.3h-.91c-.51 0-1 .06-1.52.12l-.5.06h-.22a.52.52 0 01-.46-.21c-.24-.28-.47-.57-.72-.85a7.52 7.52 0 01-1.56-3.33 10.2 10.2 0 01-.2-2.64 9.71 9.71 0 01.21-1.53v-.15a.52.52 0 01.49-.36h1.08l3.16.19H42c.34 0 .41-.06.41-.39v-2.16c0-.2-.1-.27-.29-.27a3.85 3.85 0 00-.48 0c-.43 0-.86.06-1.29.12a14.42 14.42 0 00-1.85.37h-.18a.45.45 0 01-.54-.23 4 4 0 01-.3-.63 6.37 6.37 0 01-.37-1.55 6.16 6.16 0 01.48-3.2c0-.12.12-.24.18-.36a.56.56 0 01.55-.32h1.17l1.79.05h.81a.4.4 0 00.4-.39V6.27 5.19a.31.31 0 010-.1c0-.34.19-.48.52-.39s.53.15.8.2a7 7 0 001.52.1 17.1 17.1 0 002.74-.41c.73-.15 1.46-.32 2.2-.42a8.51 8.51 0 012.14 0 2.18 2.18 0 01.6.14c.07 0 .15.07.17.16s-.1.09-.16.1a2.93 2.93 0 01-.41.07 9.61 9.61 0 00-2.53.65c-.83.31-1.63.69-2.44 1a15.63 15.63 0 01-2.4.87 7.27 7.27 0 01-1.61.23h-.13a.21.21 0 00-.2.2 1.49 1.49 0 000 .21v2.36c0 .21.1.29.3.3h.62l1.62.05 1.84.06a.46.46 0 01.23.05.21.21 0 01.13.25.78.78 0 01-.09.21 4.74 4.74 0 00-.69 2.2 5.51 5.51 0 00.42 2.66c.06.14.13.27.2.4a1.45 1.45 0 01.09.22c0 .17 0 .27-.21.26a1.43 1.43 0 01-.28-.07 15.54 15.54 0 00-1.53-.38 14.58 14.58 0 00-1.84-.27 3.4 3.4 0 00-.45 0c-.2 0-.26.06-.28.26a.86.86 0 000 .16v2.19a.26.26 0 00.23.22h.12l2.5.07 3.77.11h.62a.85.85 0 01.23 0 .23.23 0 01.15.32 1.13 1.13 0 01-.12.21 6.69 6.69 0 00-1 2.43 9.26 9.26 0 00-.16 2.78 8.36 8.36 0 00.55 2.36A7.15 7.15 0 0051 28.5a1.59 1.59 0 01.14.26c.07.19 0 .29-.22.28a1.68 1.68 0 01-.32-.09c-.74-.24-1.48-.44-2.24-.61s-1.57-.31-2.37-.41c-.63-.07-1.26-.14-1.91-.16-.32 0-.38 0-.38.36v2.52a2.28 2.28 0 000 .26.24.24 0 00.22.22h.31l1.77.07 3.74.11 2.09.06 2.25.07a.73.73 0 01.25 0 .22.22 0 01.16.32 1.18 1.18 0 01-.11.19 9.32 9.32 0 00-1.6 3.62z" />
</svg>
