<?xml version="1.0" standalone="no"?>
<!DOCTYPE svg PUBLIC "-//W3C//DTD SVG 20010904//EN"
 "http://www.w3.org/TR/2001/REC-SVG-20010904/DTD/svg10.dtd">
<svg version="1.0" xmlns="http://www.w3.org/2000/svg"
 width="300.000000pt" height="300.000000pt" viewBox="0 0 300.000000 300.000000"
 preserveAspectRatio="xMidYMid meet">
<metadata>
Created by potrace 1.11, written by Peter Selinger 2001-2013
</metadata>
<g transform="translate(0.000000,300.000000) scale(0.100000,-0.100000)"
fill="#000000" stroke="none">
<path d="M1785 2899 c-27 -4 -66 -10 -85 -14 -60 -11 -153 -13 -179 -4 -15 6
-28 6 -34 0 -5 -5 -9 -52 -10 -105 l-1 -96 -40 -1 c-23 -1 -77 -1 -121 0 -44
0 -85 -3 -91 -7 -18 -12 -44 -103 -44 -154 0 -58 16 -125 36 -153 13 -17 18
-18 61 -7 26 7 80 16 120 19 l73 5 0 -49 0 -49 -169 1 -169 1 -16 -26 c-58
-100 -59 -287 -2 -398 15 -29 21 -32 50 -28 18 3 39 8 47 10 28 10 75 17 162
23 l88 6 -3 -54 -3 -54 -230 3 -231 4 -26 -49 c-55 -102 -77 -296 -49 -428 15
-66 61 -183 75 -188 6 -3 44 4 84 14 84 21 207 38 302 42 l65 2 0 -125 c0
-119 -1 -125 -20 -124 -55 3 -277 23 -325 29 -32 4 -83 9 -230 20 -30 3 -75 7
-100 9 -59 7 -150 15 -230 21 -36 3 -82 8 -102 11 -66 9 -41 -11 50 -40 118
-38 308 -131 420 -206 220 -147 397 -378 449 -588 10 -40 22 -72 27 -72 20 0
73 45 122 104 71 86 147 124 271 135 109 10 183 41 240 102 106 112 126 130
171 153 50 25 79 32 174 40 31 3 72 12 91 20 33 13 37 21 74 135 22 67 37 123
34 126 -4 2 -88 3 -187 2 -99 0 -184 2 -190 6 -6 3 -11 54 -12 121 -1 123 -2
122 48 118 113 -9 240 -33 323 -59 26 -9 50 -14 52 -11 3 2 -6 24 -19 49 -74
138 -76 348 -5 465 10 17 19 36 19 41 0 10 -83 14 -300 16 -69 1 -127 5 -130
9 -3 4 -5 33 -5 65 l0 58 50 1 c46 0 186 -25 228 -41 21 -9 23 11 2 51 -40 81
-36 216 9 302 9 17 13 33 9 33 -21 4 -78 7 -186 9 l-118 2 3 57 3 56 39 -3
c21 -2 61 -10 87 -16 53 -14 61 -7 38 36 -16 30 -14 118 4 161 9 20 15 38 14
38 -2 2 -102 6 -169 8 -25 1 -26 3 -26 60 l1 59 41 6 c23 4 91 27 151 51 61
24 132 50 159 56 39 10 46 14 30 20 -25 9 -115 1 -183 -16 -29 -8 -92 -13
-140 -12 l-86 1 -3 -111 -3 -112 -92 -3 c-91 -3 -92 -3 -107 -33 -19 -39 -18
-150 1 -190 10 -20 21 -29 34 -28 11 2 53 6 93 9 l73 7 -3 -54 -3 -54 -118 -1
c-68 -1 -123 -6 -129 -12 -13 -13 -17 -103 -7 -159 10 -52 41 -118 73 -157 22
-27 29 -29 82 -27 31 1 60 4 65 6 20 13 34 -24 31 -82 -3 -58 -5 -60 -30 -59
-33 1 -48 -26 -66 -124 -17 -86 -13 -202 9 -278 20 -68 30 -82 61 -82 23 0 23
-1 21 -122 l-2 -123 -45 -1 c-61 -2 -449 -6 -478 -5 -22 1 -23 2 -20 124 l3
122 50 -1 c107 -2 270 -31 382 -69 62 -21 64 -20 37 29 -90 162 -92 407 -3
564 16 28 28 52 27 53 -19 5 -70 8 -269 13 -128 4 -236 11 -239 16 -3 5 -5 30
-5 57 l0 48 40 0 c51 1 175 -21 238 -41 27 -9 50 -14 52 -12 3 2 -7 31 -20 64
-46 115 -43 229 12 337 13 26 22 47 21 48 -2 0 -75 2 -163 5 -88 2 -166 6
-172 9 -8 3 -13 23 -13 51 l0 46 58 -6 c62 -6 80 -9 136 -24 40 -12 42 -8 21
35 -8 17 -18 58 -21 91 -6 50 -3 73 15 123 13 33 21 62 19 64 -2 3 -55 6 -118
7 l-115 3 0 44 c0 44 1 44 36 47 42 4 111 26 183 59 62 29 130 51 174 58 42 7
53 17 21 18 -73 4 -109 4 -154 -2z"/>
</g>
</svg>
